# xmcd
#
# Track frame offsets:
#	150
#	14330
#	35292
#	49392
#	99187
#	126655
#	154642
#	177185
#	202360
#	215092
#	239230
#
# Disc length: 3820 seconds
#
# Revision: 2
# Processed by: cddbd v1.4PL0 Copyright (c) Steve Scherf et al.
# Submitted via: CDmax 1.8
#
DISCID=a50eea0b
DTITLE=Ella Fitzgerald - Bluella: Ella Fitzgerald Sings the Blues
DYEAR=1900
DGENRE=Jazz
TTITLE0=Smooth Sailing
TTITLE1=Duke's Place
TTITLE2=St. Louis Blues
TTITLE3=C-Jam Blues
TTITLE4=Fine and Mellow
TTITLE5=Happy Blues
TTITLE6=Billie's Bounce
TTITLE7=I'm Walkin'
TTITLE8=Fine and Mellow
TTITLE9=St. Louis Blues
TTITLE10=Basella
EXTD=
EXTT0=
EXTT1=
EXTT2=
EXTT3=
EXTT4=
EXTT5=
EXTT6=
EXTT7=
EXTT8=
EXTT9=
EXTT10=
PLAYORDER=
